<mxfile host="app.diagrams.net" agent="Mozilla/5.0 (Windows NT 10.0; Win64; x64) AppleWebKit/537.36 (KHTML, like Gecko) Chrome/135.0.0.0 Safari/537.36" version="26.2.12">
  <diagram name="Page-1" id="rLrnccZMI9jc1JDO3R8r">
    <mxGraphModel dx="597" dy="328" grid="1" gridSize="10" guides="1" tooltips="1" connect="1" arrows="1" fold="1" page="1" pageScale="1" pageWidth="1169" pageHeight="1654" math="1" shadow="0">
      <root>
        <mxCell id="0" />
        <mxCell id="1" parent="0" />
        <mxCell id="mHHL-iciBwAJmtxELXkr-1" value="" style="html=1;whiteSpace=wrap;shape=isoCube2;backgroundOutline=1;isoAngle=15;" vertex="1" parent="1">
          <mxGeometry x="440" y="240" width="80" height="90" as="geometry" />
        </mxCell>
        <mxCell id="mHHL-iciBwAJmtxELXkr-2" value="" style="endArrow=classic;html=1;rounded=0;exitX=0.5;exitY=0;exitDx=0;exitDy=0;exitPerimeter=0;" edge="1" parent="1" source="mHHL-iciBwAJmtxELXkr-1">
          <mxGeometry width="50" height="50" relative="1" as="geometry">
            <mxPoint x="480" y="260" as="sourcePoint" />
            <mxPoint x="480" y="120" as="targetPoint" />
          </mxGeometry>
        </mxCell>
        <mxCell id="mHHL-iciBwAJmtxELXkr-4" value="" style="endArrow=classic;html=1;rounded=0;exitX=0.244;exitY=0.158;exitDx=0;exitDy=0;exitPerimeter=0;" edge="1" parent="1">
          <mxGeometry width="50" height="50" relative="1" as="geometry">
            <mxPoint x="480.31999999999994" y="199.74" as="sourcePoint" />
            <mxPoint x="360" y="120" as="targetPoint" />
          </mxGeometry>
        </mxCell>
        <mxCell id="mHHL-iciBwAJmtxELXkr-6" value="" style="shape=crossbar;whiteSpace=wrap;html=1;rounded=1;direction=south;strokeColor=#0000FF;" vertex="1" parent="1">
          <mxGeometry x="340" y="120" width="20" height="80" as="geometry" />
        </mxCell>
        <mxCell id="mHHL-iciBwAJmtxELXkr-8" value="$$V_{Cube}$$" style="text;html=1;align=center;verticalAlign=middle;whiteSpace=wrap;rounded=0;" vertex="1" parent="1">
          <mxGeometry x="472.5" y="115" width="60" height="30" as="geometry" />
        </mxCell>
        <mxCell id="mHHL-iciBwAJmtxELXkr-9" value="$$V_{Debris}$$" style="text;html=1;align=center;verticalAlign=middle;whiteSpace=wrap;rounded=0;" vertex="1" parent="1">
          <mxGeometry x="380" y="120" width="60" height="30" as="geometry" />
        </mxCell>
        <mxCell id="mHHL-iciBwAJmtxELXkr-10" value="$$V_{DopplerDebris}=\cos \theta \cdot V_{Debris}$$" style="text;html=1;align=center;verticalAlign=middle;whiteSpace=wrap;rounded=0;" vertex="1" parent="1">
          <mxGeometry x="190" y="145" width="140" height="30" as="geometry" />
        </mxCell>
        <mxCell id="mHHL-iciBwAJmtxELXkr-12" value="" style="verticalLabelPosition=bottom;verticalAlign=top;html=1;shape=mxgraph.basic.arc;startAngle=0.9211970936297817;endAngle=0.022831136802497397;rotation=-15;" vertex="1" parent="1">
          <mxGeometry x="450" y="175" width="70" height="80" as="geometry" />
        </mxCell>
        <mxCell id="mHHL-iciBwAJmtxELXkr-13" value="$$\theta$$" style="text;html=1;align=center;verticalAlign=middle;whiteSpace=wrap;rounded=0;" vertex="1" parent="1">
          <mxGeometry x="435" y="153" width="60" height="30" as="geometry" />
        </mxCell>
        <mxCell id="mHHL-iciBwAJmtxELXkr-14" value="" style="endArrow=none;dashed=1;html=1;rounded=0;" edge="1" parent="1">
          <mxGeometry width="50" height="50" relative="1" as="geometry">
            <mxPoint x="360" y="200" as="sourcePoint" />
            <mxPoint x="480" y="200" as="targetPoint" />
          </mxGeometry>
        </mxCell>
        <mxCell id="mHHL-iciBwAJmtxELXkr-3" value="" style="whiteSpace=wrap;html=1;shape=mxgraph.basic.pointed_oval" vertex="1" parent="1">
          <mxGeometry x="472.5" y="194" width="15" height="13" as="geometry" />
        </mxCell>
      </root>
    </mxGraphModel>
  </diagram>
</mxfile>
